# OBJ generated by ONSHAPE BY PTC INC, 1.213 Units = meters
mtllib Part Studio 1 - Part 1.mtl
g Part 1
v -0.0243639 0.0053591 -1.65103e-18 
v -0.0245482 0.00473128 -1.66352e-18 
v -0.022609 0.0104558 -1.53211e-18 
v -0.0232092 0.00929156 -1.57278e-18 
v -0.019816 0.0150615 -1.34284e-18 
v -0.0210313 0.013516 -1.4252e-18 
v -0.0161113 0.0189694 -1.09179e-18 
v -0.0180934 0.017252 -1.2261e-18 
v -0.0116618 0.0220039 -7.90263e-19 
v -0.0145014 0.0203644 -9.82694e-19 
v -0.00666708 0.0240277 -4.51797e-19 
v -0.0103854 0.0227408 -7.03768e-19 
v -0.00135133 0.0249484 -9.15732e-20 
v -0.00589397 0.0242953 -3.99407e-19 
v 0.00355787 0.0247455 2.411e-19 
v -0.00118955 0.0249717 -8.06101e-20 
v 0.00403465 0.0246299 2.7341e-19 
v 0.00921902 0.023149 6.2473e-19 
v 0.0081767 0.023625 5.54097e-19 
v 0.0139678 0.0206054 9.46535e-19 
v 0.0125 0.0216506 8.47067e-19 
v 0.0180681 0.0171145 1.22439e-18 
v 0.0163715 0.0188937 1.10942e-18 
v 0.0213354 0.0128335 1.4458e-18 
v 0.0196513 0.015454 1.33168e-18 
v 0.0236224 0.00795493 1.60078e-18 
v 0.0222209 0.0114557 1.50581e-18 
v 0.0248249 0.00269748 1.68227e-18 
v 0.0239873 0.00704331 1.62551e-18 
v 0.025 -3.06162e-18 1.69413e-18 
v 0.0248868 0.0023764 1.68646e-18 
v 0.0248249 -0.00269748 1.68227e-18 
v 0.0248868 -0.0023764 1.68646e-18 
v 0.0236224 -0.00795493 1.60078e-18 
v 0.0239873 -0.00704331 1.62551e-18 
v 0.0213354 -0.0128335 1.4458e-18 
v 0.0222209 -0.0114557 1.50581e-18 
v 0.0180681 -0.0171145 1.22439e-18 
v 0.0196513 -0.015454 1.33168e-18 
v 0.0139678 -0.0206054 9.46535e-19 
v 0.0163715 -0.0188937 1.10942e-18 
v 0.00921902 -0.023149 6.2473e-19 
v 0.0125 -0.0216506 8.47067e-19 
v 0.00403465 -0.0246299 2.7341e-19 
v 0.0081767 -0.023625 5.54097e-19 
v -0.00135133 -0.0249484 -9.15732e-20 
v -0.00118955 -0.0249717 -8.06101e-20 
v 0.00355787 -0.0247455 2.411e-19 
v -0.00666708 -0.0240277 -4.51797e-19 
v -0.00589397 -0.0242953 -3.99407e-19 
v -0.0116618 -0.0220039 -7.90263e-19 
v -0.0103854 -0.0227408 -7.03768e-19 
v -0.0161113 -0.0189694 -1.09179e-18 
v -0.0145014 -0.0203644 -9.82694e-19 
v -0.019816 -0.0150615 -1.34284e-18 
v -0.0180934 -0.017252 -1.2261e-18 
v -0.022609 -0.0104558 -1.53211e-18 
v -0.0210313 -0.013516 -1.4252e-18 
v -0.0243639 -0.0053591 -1.65103e-18 
v -0.0232092 -0.00929156 -1.57278e-18 
v -0.025 6.12323e-18 -1.69413e-18 
v -0.0245482 -0.00473128 -1.66352e-18 
v 1.04083e-17 0 0.05 
v -0.0085505 0 -0.0234923 
v -0.0043412 0 -0.0246202 
v -0.00426275 -0.000821578 -0.0246202 
v -0.00839598 -0.00161819 -0.0234923 
v -0.00403023 -0.00161346 -0.0246202 
v -0.00793801 -0.0031779 -0.0234923 
v -0.00365205 -0.00234703 -0.0246202 
v -0.00719314 -0.00462275 -0.0234923 
v -0.00314188 -0.00299577 -0.0246202 
v -0.00618829 -0.00590052 -0.0234923 
v -0.00251815 -0.00353624 -0.0246202 
v -0.00495978 -0.00696503 -0.0234923 
v -0.0018034 -0.0039489 -0.0246202 
v -0.00355201 -0.00777781 -0.0234923 
v -0.00102348 -0.00421883 -0.0246202 
v -0.00201586 -0.00830948 -0.0234923 
v -0.000206563 -0.00433629 -0.0246202 
v -0.000406849 -0.00854082 -0.0234923 
v 0.000617818 -0.00429702 -0.0246202 
v 0.00121686 -0.00846347 -0.0234923 
v 0.00141987 -0.00410244 -0.0246202 
v 0.0027966 -0.00808023 -0.0234923 
v 0.0021706 -0.00375959 -0.0246202 
v 0.00427525 -0.00740495 -0.0234923 
v 0.00284288 -0.00328086 -0.0246202 
v 0.00559939 -0.00646204 -0.0234923 
v 0.00341242 -0.00268355 -0.0246202 
v 0.00672115 -0.00528557 -0.0234923 
v 0.00385862 -0.00198926 -0.0246202 
v 0.00759999 -0.00391807 -0.0234923 
v 0.00416536 -0.00122306 -0.0246202 
v 0.00820415 -0.00240896 -0.0234923 
v 0.00432155 -0.000412658 -0.0246202 
v 0.00851179 -0.000812777 -0.0234923 
v 0.00432155 0.000412658 -0.0246202 
v 0.00851179 0.000812777 -0.0234923 
v 0.00416536 0.00122306 -0.0246202 
v 0.00820415 0.00240896 -0.0234923 
v 0.00385862 0.00198926 -0.0246202 
v 0.00759999 0.00391807 -0.0234923 
v 0.00341242 0.00268355 -0.0246202 
v 0.00672115 0.00528557 -0.0234923 
v 0.00284288 0.00328086 -0.0246202 
v 0.00559939 0.00646204 -0.0234923 
v 0.0021706 0.00375959 -0.0246202 
v 0.00427525 0.00740495 -0.0234923 
v 0.00141987 0.00410244 -0.0246202 
v 0.0027966 0.00808023 -0.0234923 
v 0.000617818 0.00429702 -0.0246202 
v 0.00121686 0.00846347 -0.0234923 
v -0.000206563 0.00433629 -0.0246202 
v -0.000406849 0.00854082 -0.0234923 
v -0.00102348 0.00421883 -0.0246202 
v -0.00201586 0.00830948 -0.0234923 
v -0.0018034 0.0039489 -0.0246202 
v -0.00355201 0.00777781 -0.0234923 
v -0.00251815 0.00353624 -0.0246202 
v -0.00495978 0.00696503 -0.0234923 
v -0.00314188 0.00299577 -0.0246202 
v -0.00618829 0.00590052 -0.0234923 
v -0.00365205 0.00234703 -0.0246202 
v -0.00719314 0.00462275 -0.0234923 
v -0.00403023 0.00161346 -0.0246202 
v -0.00793801 0.0031779 -0.0234923 
v -0.00426275 0.000821578 -0.0246202 
v -0.00839598 0.00161819 -0.0234923 
v -0.0125 0 -0.0216506 
v -0.0122741 -0.00236564 -0.0216506 
v -0.0116046 -0.00464578 -0.0216506 
v -0.0105157 -0.00675801 -0.0216506 
v -0.00904668 -0.00862599 -0.0216506 
v -0.00725071 -0.0101822 -0.0216506 
v -0.00519269 -0.0113704 -0.0216506 
v -0.00294699 -0.0121476 -0.0216506 
v -0.000594774 -0.0124858 -0.0216506 
v 0.00177894 -0.0123728 -0.0216506 
v 0.00408835 -0.0118125 -0.0216506 
v 0.00625 -0.0108253 -0.0216506 
v 0.00818576 -0.00944687 -0.0216506 
v 0.00982566 -0.00772699 -0.0216506 
v 0.0111104 -0.00572783 -0.0216506 
v 0.0119937 -0.00352166 -0.0216506 
v 0.0124434 -0.0011882 -0.0216506 
v 0.0124434 0.0011882 -0.0216506 
v 0.0119937 0.00352166 -0.0216506 
v 0.0111104 0.00572783 -0.0216506 
v 0.00982566 0.00772699 -0.0216506 
v 0.00818576 0.00944687 -0.0216506 
v 0.00625 0.0108253 -0.0216506 
v 0.00408835 0.0118125 -0.0216506 
v 0.00177894 0.0123728 -0.0216506 
v -0.000594774 0.0124858 -0.0216506 
v -0.00294699 0.0121476 -0.0216506 
v -0.00519269 0.0113704 -0.0216506 
v -0.00725071 0.0101822 -0.0216506 
v -0.00904668 0.00862599 -0.0216506 
v -0.0105157 0.00675801 -0.0216506 
v -0.0116046 0.00464578 -0.0216506 
v -0.0122741 0.00236564 -0.0216506 
v -0.0160697 0 -0.0191511 
v -0.0157793 -0.00304121 -0.0191511 
v -0.0149186 -0.0059725 -0.0191511 
v -0.0135187 -0.00868793 -0.0191511 
v -0.0116302 -0.0110894 -0.0191511 
v -0.00932133 -0.01309 -0.0191511 
v -0.00667559 -0.0146175 -0.0191511 
v -0.00378857 -0.0156167 -0.0191511 
v -0.000764627 -0.0160515 -0.0191511 
v 0.00228696 -0.0159061 -0.0191511 
v 0.00525588 -0.0151859 -0.0191511 
v 0.00803485 -0.0139168 -0.0191511 
v 0.0105234 -0.0121447 -0.0191511 
v 0.0126316 -0.00993362 -0.0191511 
v 0.0142833 -0.00736356 -0.0191511 
v 0.0154188 -0.00452735 -0.0191511 
v 0.0159969 -0.00152752 -0.0191511 
v 0.0159969 0.00152752 -0.0191511 
v 0.0154188 0.00452735 -0.0191511 
v 0.0142833 0.00736356 -0.0191511 
v 0.0126316 0.00993362 -0.0191511 
v 0.0105234 0.0121447 -0.0191511 
v 0.00803485 0.0139168 -0.0191511 
v 0.00525588 0.0151859 -0.0191511 
v 0.00228696 0.0159061 -0.0191511 
v -0.000764627 0.0160515 -0.0191511 
v -0.00378857 0.0156167 -0.0191511 
v -0.00667559 0.0146175 -0.0191511 
v -0.00932133 0.01309 -0.0191511 
v -0.0116302 0.0110894 -0.0191511 
v -0.0135187 0.00868793 -0.0191511 
v -0.0149186 0.0059725 -0.0191511 
v -0.0157793 0.00304121 -0.0191511 
v -0.0191511 0 -0.0160697 
v -0.018805 -0.00362437 -0.0160697 
v -0.0177793 -0.00711775 -0.0160697 
v -0.0161109 -0.0103539 -0.0160697 
v -0.0138603 -0.0132158 -0.0160697 
v -0.0111087 -0.0156 -0.0160697 
v -0.00795566 -0.0174205 -0.0160697 
v -0.00451505 -0.0186113 -0.0160697 
v -0.000911247 -0.0191294 -0.0160697 
v 0.00272549 -0.0189562 -0.0160697 
v 0.00626371 -0.0180978 -0.0160697 
v 0.00957556 -0.0165853 -0.0160697 
v 0.0125413 -0.0144734 -0.0160697 
v 0.0150538 -0.0118384 -0.0160697 
v 0.0170222 -0.00877555 -0.0160697 
v 0.0183754 -0.00539549 -0.0160697 
v 0.0190644 -0.00182043 -0.0160697 
v 0.0190644 0.00182043 -0.0160697 
v 0.0183754 0.00539549 -0.0160697 
v 0.0170222 0.00877555 -0.0160697 
v 0.0150538 0.0118384 -0.0160697 
v 0.0125413 0.0144734 -0.0160697 
v 0.00957556 0.0165853 -0.0160697 
v 0.00626371 0.0180978 -0.0160697 
v 0.00272549 0.0189562 -0.0160697 
v -0.000911247 0.0191294 -0.0160697 
v -0.00451505 0.0186113 -0.0160697 
v -0.00795566 0.0174205 -0.0160697 
v -0.0111087 0.0156 -0.0160697 
v -0.0138603 0.0132158 -0.0160697 
v -0.0161109 0.0103539 -0.0160697 
v -0.0177793 0.00711775 -0.0160697 
v -0.018805 0.00362437 -0.0160697 
v -0.0216506 0 -0.0125 
v -0.0212594 -0.00409741 -0.0125 
v -0.0200998 -0.00804673 -0.0125 
v -0.0182137 -0.0117052 -0.0125 
v -0.0156693 -0.0149406 -0.0125 
v -0.0125586 -0.0176361 -0.0125 
v -0.008994 -0.0196941 -0.0125 
v -0.00510433 -0.0210403 -0.0125 
v -0.00103018 -0.0216261 -0.0125 
v 0.00308121 -0.0214303 -0.0125 
v 0.00708123 -0.0204599 -0.0125 
v 0.0108253 -0.01875 -0.0125 
v 0.0141782 -0.0163625 -0.0125 
v 0.0170185 -0.0133835 -0.0125 
v 0.0192439 -0.0099209 -0.0125 
v 0.0207736 -0.00609969 -0.0125 
v 0.0215526 -0.00205802 -0.0125 
v 0.0215526 0.00205802 -0.0125 
v 0.0207736 0.00609969 -0.0125 
v 0.0192439 0.0099209 -0.0125 
v 0.0170185 0.0133835 -0.0125 
v 0.0141782 0.0163625 -0.0125 
v 0.0108253 0.01875 -0.0125 
v 0.00708123 0.0204599 -0.0125 
v 0.00308121 0.0214303 -0.0125 
v -0.00103018 0.0216261 -0.0125 
v -0.00510433 0.0210403 -0.0125 
v -0.008994 0.0196941 -0.0125 
v -0.0125586 0.0176361 -0.0125 
v -0.0156693 0.0149406 -0.0125 
v -0.0182137 0.0117052 -0.0125 
v -0.0200998 0.00804673 -0.0125 
v -0.0212594 0.00409741 -0.0125 
v -0.0234923 0 -0.0085505 
v -0.0230678 -0.00444595 -0.0085505 
v -0.0218095 -0.00873121 -0.0085505 
v -0.019763 -0.0127009 -0.0085505 
v -0.0170022 -0.0162116 -0.0085505 
v -0.0136269 -0.0191363 -0.0085505 
v -0.00975906 -0.0213694 -0.0085505 
v -0.00553852 -0.0228301 -0.0085505 
v -0.00111781 -0.0234657 -0.0085505 
v 0.00334331 -0.0232532 -0.0085505 
v 0.00768358 -0.0222003 -0.0085505 
v 0.0117462 -0.0203449 -0.0085505 
v 0.0153842 -0.0177543 -0.0085505 
v 0.0184662 -0.014522 -0.0085505 
v 0.0208808 -0.0107648 -0.0085505 
v 0.0225407 -0.00661855 -0.0085505 
v 0.0233859 -0.00223309 -0.0085505 
v 0.0233859 0.00223309 -0.0085505 
v 0.0225407 0.00661855 -0.0085505 
v 0.0208808 0.0107648 -0.0085505 
v 0.0184662 0.014522 -0.0085505 
v 0.0153842 0.0177543 -0.0085505 
v 0.0117462 0.0203449 -0.0085505 
v 0.00768358 0.0222003 -0.0085505 
v 0.00334331 0.0232532 -0.0085505 
v -0.00111781 0.0234657 -0.0085505 
v -0.00553852 0.0228301 -0.0085505 
v -0.00975906 0.0213694 -0.0085505 
v -0.0136269 0.0191363 -0.0085505 
v -0.0170022 0.0162116 -0.0085505 
v -0.019763 0.0127009 -0.0085505 
v -0.0218095 0.00873121 -0.0085505 
v -0.0230678 0.00444595 -0.0085505 
v -0.0246202 0 -0.0043412 
v -0.0241753 -0.0046594 -0.0043412 
v -0.0228566 -0.0091504 -0.0043412 
v -0.0207118 -0.0133107 -0.0043412 
v -0.0178185 -0.0169899 -0.0043412 
v -0.0142811 -0.020055 -0.0043412 
v -0.0102276 -0.0223953 -0.0043412 
v -0.00580443 -0.0239262 -0.0043412 
v -0.00117148 -0.0245923 -0.0043412 
v 0.00350382 -0.0243696 -0.0043412 
v 0.00805248 -0.0232661 -0.0043412 
v 0.0123101 -0.0213217 -0.0043412 
v 0.0161228 -0.0186067 -0.0043412 
v 0.0193528 -0.0152192 -0.0043412 
v 0.0218833 -0.0112816 -0.0043412 
v 0.0236229 -0.00693631 -0.0043412 
v 0.0245087 -0.0023403 -0.0043412 
v 0.0245087 0.0023403 -0.0043412 
v 0.0236229 0.00693631 -0.0043412 
v 0.0218833 0.0112816 -0.0043412 
v 0.0193528 0.0152192 -0.0043412 
v 0.0161228 0.0186067 -0.0043412 
v 0.0123101 0.0213217 -0.0043412 
v 0.00805248 0.0232661 -0.0043412 
v 0.00350382 0.0243696 -0.0043412 
v -0.00117148 0.0245923 -0.0043412 
v -0.00580443 0.0239262 -0.0043412 
v -0.0102276 0.0223953 -0.0043412 
v -0.0142811 0.020055 -0.0043412 
v -0.0178185 0.0169899 -0.0043412 
v -0.0207118 0.0133107 -0.0043412 
v -0.0228566 0.0091504 -0.0043412 
v -0.0241753 0.0046594 -0.0043412 
v -9.14091e-18 0 -0.025 
vn -0.875979 0.180724 0.447214 
vn -0.873545 0.192146 0.447214 
vn -0.878264 0.169271 0.447214 
vn -0.821369 0.354051 0.447214 
vn -0.811818 0.375434 0.447214 
vn -0.830358 0.332425 0.447214 
vn -0.732831 0.512795 0.447214 
vn -0.712086 0.541233 0.447214 
vn -0.75244 0.483564 0.447214 
vn -0.614016 0.650372 0.447214 
vn -0.57901 0.681724 0.447214 
vn -0.647327 0.617225 0.447214 
vn -0.469847 0.761081 0.447214 
vn -0.418846 0.790296 0.447214 
vn -0.518819 0.728579 0.447214 
vn -0.306304 0.840344 0.447214 
vn -0.239145 0.861864 0.447214 
vn -0.371558 0.8136 0.447214 
vn -0.130172 0.884904 0.447214 
vn -0.0483756 0.893118 0.447214 
vn -0.210869 0.869215 0.447214 
vn 0.0425586 0.893414 0.447214 
vn 0.12729 0.885323 0.447214 
vn -0.0425586 0.893414 0.447214 
vn 0.135947 0.884035 0.447214 
vn 0.14459 0.882663 0.447214 
vn 0.311814 0.838315 0.447214 
vn 0.330926 0.830956 0.447214 
vn 0.292538 0.845234 0.447214 
vn 0.47485 0.75797 0.447214 
vn 0.501868 0.740357 0.447214 
vn 0.447214 0.774597 0.447214 
vn 0.618292 0.646309 0.447214 
vn 0.649359 0.615087 0.447214 
vn 0.585725 0.675963 0.447214 
vn 0.736194 0.507955 0.447214 
vn 0.766452 0.461032 0.447214 
vn 0.703067 0.552898 0.447214 
vn 0.823678 0.348646 0.447214 
vn 0.847654 0.285451 0.447214 
vn 0.794999 0.40985 0.447214 
vn 0.877142 0.174992 0.447214 
vn 0.889193 0.0966198 0.447214 
vn 0.858197 0.251989 0.447214 
vn 0.893414 0.0425586 0.447214 
vn 0.894427 -2.8767e-16 0.447214 
vn 0.890377 0.0850207 0.447214 
vn 0.889804 -0.0908222 0.447214 
vn 0.889193 -0.0966198 0.447214 
vn 0.890377 -0.0850207 0.447214 
vn 0.893414 -0.0425586 0.447214 
vn 0.853089 -0.268772 0.447214 
vn 0.847654 -0.285451 0.447214 
vn 0.858197 -0.251989 0.447214 
vn 0.781145 -0.435675 0.447214 
vn 0.766452 -0.461032 0.447214 
vn 0.794999 -0.40985 0.447214 
vn 0.676928 -0.58461 0.447214 
vn 0.649359 -0.615087 0.447214 
vn 0.703067 -0.552898 0.447214 
vn 0.544749 -0.7094 0.447214 
vn 0.501868 -0.740357 0.447214 
vn 0.585725 -0.675963 0.447214 
vn 0.390089 -0.804879 0.447214 
vn 0.330926 -0.830956 0.447214 
vn 0.447214 -0.774597 0.447214 
vn 0.219364 -0.86711 0.447214 
vn 0.14459 -0.882663 0.447214 
vn 0.292538 -0.845234 0.447214 
vn -0.0454673 -0.893271 0.447214 
vn -0.0483756 -0.893118 0.447214 
vn -0.0425586 -0.893414 0.447214 
vn 0.12729 -0.885323 0.447214 
vn 0.0425586 -0.893414 0.447214 
vn -0.225037 -0.865655 0.447214 
vn -0.239145 -0.861864 0.447214 
vn -0.210869 -0.869215 0.447214 
vn -0.395374 -0.802296 0.447214 
vn -0.418846 -0.790296 0.447214 
vn -0.371558 -0.8136 0.447214 
vn -0.549414 -0.705793 0.447214 
vn -0.57901 -0.681724 0.447214 
vn -0.518819 -0.728579 0.447214 
vn -0.680768 -0.580133 0.447214 
vn -0.712086 -0.541233 0.447214 
vn -0.647327 -0.617225 0.447214 
vn -0.783996 -0.430524 0.447214 
vn -0.811818 -0.375434 0.447214 
vn -0.75244 -0.483564 0.447214 
vn -0.854833 -0.263173 0.447214 
vn -0.873545 -0.192146 0.447214 
vn -0.830358 -0.332425 0.447214 
vn -0.890377 -0.0850207 0.447214 
vn -0.894427 0 0.447214 
vn -0.878264 -0.169271 0.447214 
vn -0.875979 -0.180724 0.447214 
vn -0.821369 -0.354051 0.447214 
vn -0.732831 -0.512795 0.447214 
vn -0.614016 -0.650372 0.447214 
vn -0.469847 -0.761081 0.447214 
vn -0.306304 -0.840344 0.447214 
vn -0.130172 -0.884904 0.447214 
vn 0.135947 -0.884035 0.447214 
vn 0.311814 -0.838315 0.447214 
vn 0.47485 -0.75797 0.447214 
vn 0.618292 -0.646309 0.447214 
vn 0.736194 -0.507955 0.447214 
vn 0.823678 -0.348646 0.447214 
vn 0.877142 -0.174992 0.447214 
vn 0.889804 0.0908222 0.447214 
vn 0.853089 0.268772 0.447214 
vn 0.781145 0.435675 0.447214 
vn 0.676928 0.58461 0.447214 
vn 0.544749 0.7094 0.447214 
vn 0.390089 0.804879 0.447214 
vn 0.219364 0.86711 0.447214 
vn -0.0454673 0.893271 0.447214 
vn -0.225037 0.865655 0.447214 
vn -0.395374 0.802296 0.447214 
vn -0.549414 0.705793 0.447214 
vn -0.680768 0.580133 0.447214 
vn -0.783996 0.430524 0.447214 
vn -0.854833 0.263173 0.447214 
vn -0.890377 0.0850207 0.447214 
vn -0.34202 0 -0.939693 
vn -0.173648 0 -0.984808 
vn -0.17051 -0.0328631 -0.984808 
vn -0.335839 -0.0647277 -0.939693 
vn -0.161209 -0.0645385 -0.984808 
vn -0.317521 -0.127116 -0.939693 
vn -0.146082 -0.0938813 -0.984808 
vn -0.287726 -0.18491 -0.939693 
vn -0.125675 -0.119831 -0.984808 
vn -0.247532 -0.236021 -0.939693 
vn -0.100726 -0.14145 -0.984808 
vn -0.198391 -0.278601 -0.939693 
vn -0.0721361 -0.157956 -0.984808 
vn -0.14208 -0.311112 -0.939693 
vn -0.0409391 -0.168753 -0.984808 
vn -0.0806343 -0.332379 -0.939693 
vn -0.00826251 -0.173451 -0.984808 
vn -0.016274 -0.341633 -0.939693 
vn 0.0247127 -0.171881 -0.984808 
vn 0.0486745 -0.338539 -0.939693 
vn 0.0567948 -0.164098 -0.984808 
vn 0.111864 -0.323209 -0.939693 
vn 0.0868241 -0.150384 -0.984808 
vn 0.17101 -0.296198 -0.939693 
vn 0.113715 -0.131235 -0.984808 
vn 0.223976 -0.258482 -0.939693 
vn 0.136497 -0.107342 -0.984808 
vn 0.268846 -0.211423 -0.939693 
vn 0.154345 -0.0795702 -0.984808 
vn 0.304 -0.156723 -0.939693 
vn 0.166614 -0.0489223 -0.984808 
vn 0.328166 -0.0963582 -0.939693 
vn 0.172862 -0.0165063 -0.984808 
vn 0.340471 -0.0325111 -0.939693 
vn 0.172862 0.0165063 -0.984808 
vn 0.340471 0.0325111 -0.939693 
vn 0.166614 0.0489223 -0.984808 
vn 0.328166 0.0963582 -0.939693 
vn 0.154345 0.0795702 -0.984808 
vn 0.304 0.156723 -0.939693 
vn 0.136497 0.107342 -0.984808 
vn 0.268846 0.211423 -0.939693 
vn 0.113715 0.131235 -0.984808 
vn 0.223976 0.258482 -0.939693 
vn 0.0868241 0.150384 -0.984808 
vn 0.17101 0.296198 -0.939693 
vn 0.0567948 0.164098 -0.984808 
vn 0.111864 0.323209 -0.939693 
vn 0.0247127 0.171881 -0.984808 
vn 0.0486745 0.338539 -0.939693 
vn -0.00826251 0.173451 -0.984808 
vn -0.016274 0.341633 -0.939693 
vn -0.0409391 0.168753 -0.984808 
vn -0.0806343 0.332379 -0.939693 
vn -0.0721361 0.157956 -0.984808 
vn -0.14208 0.311112 -0.939693 
vn -0.100726 0.14145 -0.984808 
vn -0.198391 0.278601 -0.939693 
vn -0.125675 0.119831 -0.984808 
vn -0.247532 0.236021 -0.939693 
vn -0.146082 0.0938813 -0.984808 
vn -0.287726 0.18491 -0.939693 
vn -0.161209 0.0645385 -0.984808 
vn -0.317521 0.127116 -0.939693 
vn -0.17051 0.0328631 -0.984808 
vn -0.335839 0.0647277 -0.939693 
vn -0.5 0 -0.866025 
vn -0.490964 -0.0946256 -0.866025 
vn -0.464184 -0.185831 -0.866025 
vn -0.420627 -0.27032 -0.866025 
vn -0.361867 -0.34504 -0.866025 
vn -0.290028 -0.407288 -0.866025 
vn -0.207708 -0.454816 -0.866025 
vn -0.117879 -0.485906 -0.866025 
vn -0.023791 -0.499434 -0.866025 
vn 0.0711574 -0.494911 -0.866025 
vn 0.163534 -0.4725 -0.866025 
vn 0.25 -0.433013 -0.866025 
vn 0.32743 -0.377875 -0.866025 
vn 0.393027 -0.309079 -0.866025 
vn 0.444418 -0.229113 -0.866025 
vn 0.479746 -0.140866 -0.866025 
vn 0.497736 -0.047528 -0.866025 
vn 0.497736 0.047528 -0.866025 
vn 0.479746 0.140866 -0.866025 
vn 0.444418 0.229113 -0.866025 
vn 0.393027 0.309079 -0.866025 
vn 0.32743 0.377875 -0.866025 
vn 0.25 0.433013 -0.866025 
vn 0.163534 0.4725 -0.866025 
vn 0.0711574 0.494911 -0.866025 
vn -0.023791 0.499434 -0.866025 
vn -0.117879 0.485906 -0.866025 
vn -0.207708 0.454816 -0.866025 
vn -0.290028 0.407288 -0.866025 
vn -0.361867 0.34504 -0.866025 
vn -0.420627 0.27032 -0.866025 
vn -0.464184 0.185831 -0.866025 
vn -0.490964 0.0946256 -0.866025 
vn -0.642788 0 -0.766044 
vn -0.631172 -0.121648 -0.766044 
vn -0.596743 -0.2389 -0.766044 
vn -0.540747 -0.347517 -0.766044 
vn -0.465207 -0.443574 -0.766044 
vn -0.372853 -0.523599 -0.766044 
vn -0.267024 -0.5847 -0.766044 
vn -0.151543 -0.624668 -0.766044 
vn -0.0305851 -0.64206 -0.766044 
vn 0.0914782 -0.636245 -0.766044 
vn 0.210235 -0.607435 -0.766044 
vn 0.321394 -0.55667 -0.766044 
vn 0.420936 -0.485786 -0.766044 
vn 0.505265 -0.397345 -0.766044 
vn 0.571332 -0.294542 -0.766044 
vn 0.61675 -0.181094 -0.766044 
vn 0.639877 -0.0611008 -0.766044 
vn 0.639877 0.0611008 -0.766044 
vn 0.61675 0.181094 -0.766044 
vn 0.571332 0.294542 -0.766044 
vn 0.505265 0.397345 -0.766044 
vn 0.420936 0.485786 -0.766044 
vn 0.321394 0.55667 -0.766044 
vn 0.210235 0.607435 -0.766044 
vn 0.0914782 0.636245 -0.766044 
vn -0.0305851 0.64206 -0.766044 
vn -0.151543 0.624668 -0.766044 
vn -0.267024 0.5847 -0.766044 
vn -0.372853 0.523599 -0.766044 
vn -0.465207 0.443574 -0.766044 
vn -0.540747 0.347517 -0.766044 
vn -0.596743 0.2389 -0.766044 
vn -0.631172 0.121648 -0.766044 
vn -0.766044 0 -0.642788 
vn -0.752201 -0.144975 -0.642788 
vn -0.711171 -0.28471 -0.642788 
vn -0.644438 -0.414155 -0.642788 
vn -0.554412 -0.528631 -0.642788 
vn -0.444349 -0.624001 -0.642788 
vn -0.318226 -0.696819 -0.642788 
vn -0.180602 -0.744451 -0.642788 
vn -0.0364499 -0.765177 -0.642788 
vn 0.109019 -0.758247 -0.642788 
vn 0.250549 -0.723913 -0.642788 
vn 0.383022 -0.663414 -0.642788 
vn 0.501652 -0.578938 -0.642788 
vn 0.602152 -0.473537 -0.642788 
vn 0.680887 -0.351022 -0.642788 
vn 0.735014 -0.21582 -0.642788 
vn 0.762576 -0.0728172 -0.642788 
vn 0.762576 0.0728172 -0.642788 
vn 0.735014 0.21582 -0.642788 
vn 0.680887 0.351022 -0.642788 
vn 0.602152 0.473537 -0.642788 
vn 0.501652 0.578938 -0.642788 
vn 0.383022 0.663414 -0.642788 
vn 0.250549 0.723913 -0.642788 
vn 0.109019 0.758247 -0.642788 
vn -0.0364499 0.765177 -0.642788 
vn -0.180602 0.744451 -0.642788 
vn -0.318226 0.696819 -0.642788 
vn -0.444349 0.624001 -0.642788 
vn -0.554412 0.528631 -0.642788 
vn -0.644438 0.414155 -0.642788 
vn -0.711171 0.28471 -0.642788 
vn -0.752201 0.144975 -0.642788 
vn -0.866025 0 -0.5 
vn -0.850375 -0.163896 -0.5 
vn -0.80399 -0.321869 -0.5 
vn -0.728547 -0.468209 -0.5 
vn -0.626772 -0.597626 -0.5 
vn -0.502344 -0.705443 -0.5 
vn -0.35976 -0.787764 -0.5 
vn -0.204173 -0.841614 -0.5 
vn -0.0412071 -0.865044 -0.5 
vn 0.123248 -0.857211 -0.5 
vn 0.283249 -0.818395 -0.5 
vn 0.433013 -0.75 -0.5 
vn 0.567126 -0.654498 -0.5 
vn 0.680742 -0.535341 -0.5 
vn 0.769754 -0.396836 -0.5 
vn 0.830945 -0.243988 -0.5 
vn 0.862104 -0.0823209 -0.5 
vn 0.862104 0.0823209 -0.5 
vn 0.830945 0.243988 -0.5 
vn 0.769754 0.396836 -0.5 
vn 0.680742 0.535341 -0.5 
vn 0.567126 0.654498 -0.5 
vn 0.433013 0.75 -0.5 
vn 0.283249 0.818395 -0.5 
vn 0.123248 0.857211 -0.5 
vn -0.0412071 0.865044 -0.5 
vn -0.204173 0.841614 -0.5 
vn -0.35976 0.787764 -0.5 
vn -0.502344 0.705443 -0.5 
vn -0.626772 0.597626 -0.5 
vn -0.728547 0.468209 -0.5 
vn -0.80399 0.321869 -0.5 
vn -0.850375 0.163896 -0.5 
vn -0.939693 0 -0.34202 
vn -0.922711 -0.177838 -0.34202 
vn -0.87238 -0.349248 -0.34202 
vn -0.79052 -0.508036 -0.34202 
vn -0.680088 -0.648462 -0.34202 
vn -0.545075 -0.765451 -0.34202 
vn -0.390362 -0.854774 -0.34202 
vn -0.221541 -0.913204 -0.34202 
vn -0.0447124 -0.938628 -0.34202 
vn 0.133732 -0.930128 -0.34202 
vn 0.307343 -0.88801 -0.34202 
vn 0.469846 -0.813798 -0.34202 
vn 0.615368 -0.710172 -0.34202 
vn 0.738648 -0.580879 -0.34202 
vn 0.835232 -0.430592 -0.34202 
vn 0.901628 -0.264742 -0.34202 
vn 0.935438 -0.0893235 -0.34202 
vn 0.935438 0.0893235 -0.34202 
vn 0.901628 0.264742 -0.34202 
vn 0.835232 0.430592 -0.34202 
vn 0.738648 0.580879 -0.34202 
vn 0.615368 0.710172 -0.34202 
vn 0.469846 0.813798 -0.34202 
vn 0.307343 0.88801 -0.34202 
vn 0.133732 0.930128 -0.34202 
vn -0.0447124 0.938628 -0.34202 
vn -0.221541 0.913204 -0.34202 
vn -0.390362 0.854774 -0.34202 
vn -0.545075 0.765451 -0.34202 
vn -0.680088 0.648462 -0.34202 
vn -0.79052 0.508036 -0.34202 
vn -0.87238 0.349248 -0.34202 
vn -0.922711 0.177838 -0.34202 
vn -0.984808 0 -0.173648 
vn -0.967011 -0.186376 -0.173648 
vn -0.914264 -0.366016 -0.173648 
vn -0.828473 -0.532427 -0.173648 
vn -0.712739 -0.679595 -0.173648 
vn -0.571245 -0.802201 -0.173648 
vn -0.409104 -0.895813 -0.173648 
vn -0.232177 -0.957048 -0.173648 
vn -0.046859 -0.983692 -0.173648 
vn 0.140153 -0.974784 -0.173648 
vn 0.322099 -0.930644 -0.173648 
vn 0.492404 -0.852869 -0.173648 
vn 0.644912 -0.744268 -0.173648 
vn 0.774111 -0.608768 -0.173648 
vn 0.875332 -0.451265 -0.173648 
vn 0.944916 -0.277452 -0.173648 
vn 0.980348 -0.0936119 -0.173648 
vn 0.980348 0.0936119 -0.173648 
vn 0.944916 0.277452 -0.173648 
vn 0.875332 0.451265 -0.173648 
vn 0.774111 0.608768 -0.173648 
vn 0.644912 0.744268 -0.173648 
vn 0.492404 0.852869 -0.173648 
vn 0.322099 0.930644 -0.173648 
vn 0.140153 0.974784 -0.173648 
vn -0.046859 0.983692 -0.173648 
vn -0.232177 0.957048 -0.173648 
vn -0.409104 0.895813 -0.173648 
vn -0.571245 0.802201 -0.173648 
vn -0.712739 0.679595 -0.173648 
vn -0.828473 0.532427 -0.173648 
vn -0.914264 0.366016 -0.173648 
vn -0.967011 0.186376 -0.173648 
vn -1 0 3.67433e-17 
vn -0.928368 -0.371662 4.15974e-17 
vn -0.976652 -0.214825 3.85503e-17 
vn -0.841254 -0.540641 4.75008e-17 
vn -0.90764 -0.419749 4.33811e-17 
vn -0.723734 -0.690079 5.54645e-17 
vn -0.796137 -0.605117 5.10192e-17 
vn -0.647353 -0.762191 7.01283e-17 
vn -0.580057 -0.814576 6.52008e-17 
vn -0.468284 -0.883578 7.00856e-17 
vn -0.415415 -0.909632 7.63579e-17 
vn -0.267373 -0.963593 6.99946e-17 
vn -0.235759 -0.971812 8.85323e-17 
vn -0.0540856 -0.998536 1.04571e-16 
vn -0.0475819 -0.998867 1.01284e-16 
vn 0.327068 -0.945001 1.26672e-16 
vn 0.161657 -0.986847 1.15639e-16 
vn 0.5 -0.866025 1.38391e-16 
vn 0.369986 -0.929037 1.29928e-16 
vn 0.654861 -0.75575 1.48885e-16 
vn 0.561106 -0.827744 1.4298e-16 
vn 0.726006 -0.687689 1.39835e-16 
vn 0.786053 -0.618159 1.57776e-16 
vn 0.85692 -0.51545 1.74612e-16 
vn 0.888835 -0.458227 1.64741e-16 
vn 0.947706 -0.319144 1.74415e-16 
vn 0.959493 -0.281733 1.69529e-16 
vn 0.994148 -0.108024 1.74099e-16 
vn 0.995472 -0.095056 1.71967e-16 
vn 1 -1.22465e-16 1.72274e-16 
vn 0.995472 0.095056 1.71967e-16 
vn 0.959493 0.281733 1.69529e-16 
vn 0.994148 0.108024 1.71999e-16 
vn 0.888835 0.458227 1.64741e-16 
vn 0.947706 0.319144 1.69041e-16 
vn 0.786053 0.618159 1.57776e-16 
vn 0.85692 0.51545 1.63007e-16 
vn 0.654861 0.75575 1.48885e-16 
vn 0.726006 0.687689 1.54181e-16 
vn 0.561106 0.827744 1.39799e-16 
vn 0.5 0.866025 1.38391e-16 
vn 0.369986 0.929037 1.39666e-16 
vn 0.327068 0.945001 1.26672e-16 
vn 0.161657 0.986847 1.04684e-16 
vn 0.142315 0.989821 1.14153e-16 
vn -0.235759 0.971812 8.85323e-17 
vn -0.0540856 0.998536 1.00906e-16 
vn -0.415415 0.909632 7.63579e-17 
vn -0.267373 0.963593 8.66602e-17 
vn -0.580057 0.814576 6.52008e-17 
vn -0.468284 0.883578 7.31816e-17 
vn -0.723734 0.690079 5.54645e-17 
vn -0.647353 0.762191 6.11108e-17 
vn -0.796137 0.605117 3.52746e-17 
vn -0.841254 0.540641 4.75008e-17 
vn -0.90764 0.419749 3.5247e-17 
vn -0.928368 0.371662 4.15974e-17 
vn -0.976652 0.214825 3.51952e-17 
vn -0.981929 0.189251 3.79679e-17 
vn -0.0475819 0.998867 1.01284e-16 
vn 0.142315 -0.989821 1.14153e-16 
vn -0.981929 -0.189251 3.79679e-17 
vn 6.81026e-18 5.8205e-18 -1 
usemtl 0.615686_0.811765_0.929412_0.000000_0.000000
o mesh0
f 63//1 1//2 2//3 
f 63//4 3//5 4//6 
f 63//7 5//8 6//9 
f 63//10 7//11 8//12 
f 63//13 9//14 10//15 
f 63//16 11//17 12//18 
f 63//19 13//20 14//21 
f 63//22 15//23 16//24 
f 63//25 17//26 15//23 
f 63//27 18//28 19//29 
f 63//30 20//31 21//32 
f 63//33 22//34 23//35 
f 63//36 24//37 25//38 
f 63//39 26//40 27//41 
f 63//42 28//43 29//44 
f 63//45 30//46 31//47 
f 63//48 32//49 33//50 
f 33//50 30//46 63//51 
f 63//52 34//53 35//54 
f 63//55 36//56 37//57 
f 63//58 38//59 39//60 
f 63//61 40//62 41//63 
f 63//64 42//65 43//66 
f 63//67 44//68 45//69 
f 63//70 46//71 47//72 
f 47//72 48//73 63//74 
f 63//75 49//76 50//77 
f 63//78 51//79 52//80 
f 63//81 53//82 54//83 
f 63//84 55//85 56//86 
f 63//87 57//88 58//89 
f 63//90 59//91 60//92 
f 63//93 61//94 62//95 
f 62//95 59//91 63//96 
f 60//92 57//88 63//97 
f 58//89 55//85 63//98 
f 56//86 53//82 63//99 
f 54//83 51//79 63//100 
f 52//80 49//76 63//101 
f 50//77 46//71 63//102 
f 48//73 44//68 63//103 
f 45//69 42//65 63//104 
f 43//66 40//62 63//105 
f 41//63 38//59 63//106 
f 39//60 36//56 63//107 
f 37//57 34//53 63//108 
f 35//54 32//49 63//109 
f 31//47 28//43 63//110 
f 29//44 26//40 63//111 
f 27//41 24//37 63//112 
f 25//38 22//34 63//113 
f 23//35 20//31 63//114 
f 21//32 18//28 63//115 
f 19//29 17//26 63//116 
f 16//24 13//20 63//117 
f 14//21 11//17 63//118 
f 12//18 9//14 63//119 
f 10//15 7//11 63//120 
f 8//12 5//8 63//121 
f 6//9 3//5 63//122 
f 4//6 1//2 63//123 
f 2//3 61//94 63//124 
o mesh1
f 64//125 65//126 66//127 
f 67//128 66//127 68//129 
f 69//130 68//129 70//131 
f 71//132 70//131 72//133 
f 73//134 72//133 74//135 
f 75//136 74//135 76//137 
f 77//138 76//137 78//139 
f 79//140 78//139 80//141 
f 81//142 80//141 82//143 
f 83//144 82//143 84//145 
f 85//146 84//145 86//147 
f 87//148 86//147 88//149 
f 89//150 88//149 90//151 
f 91//152 90//151 92//153 
f 93//154 92//153 94//155 
f 95//156 94//155 96//157 
f 97//158 96//157 98//159 
f 99//160 98//159 100//161 
f 101//162 100//161 102//163 
f 103//164 102//163 104//165 
f 105//166 104//165 106//167 
f 107//168 106//167 108//169 
f 109//170 108//169 110//171 
f 111//172 110//171 112//173 
f 113//174 112//173 114//175 
f 115//176 114//175 116//177 
f 117//178 116//177 118//179 
f 119//180 118//179 120//181 
f 121//182 120//181 122//183 
f 123//184 122//183 124//185 
f 125//186 124//185 126//187 
f 127//188 126//187 128//189 
f 129//190 128//189 65//126 
f 130//191 64//125 67//128 
f 131//192 67//128 69//130 
f 132//193 69//130 71//132 
f 133//194 71//132 73//134 
f 134//195 73//134 75//136 
f 135//196 75//136 77//138 
f 136//197 77//138 79//140 
f 137//198 79//140 81//142 
f 138//199 81//142 83//144 
f 139//200 83//144 85//146 
f 140//201 85//146 87//148 
f 141//202 87//148 89//150 
f 142//203 89//150 91//152 
f 143//204 91//152 93//154 
f 144//205 93//154 95//156 
f 145//206 95//156 97//158 
f 146//207 97//158 99//160 
f 147//208 99//160 101//162 
f 148//209 101//162 103//164 
f 149//210 103//164 105//166 
f 150//211 105//166 107//168 
f 151//212 107//168 109//170 
f 152//213 109//170 111//172 
f 153//214 111//172 113//174 
f 154//215 113//174 115//176 
f 155//216 115//176 117//178 
f 156//217 117//178 119//180 
f 157//218 119//180 121//182 
f 158//219 121//182 123//184 
f 159//220 123//184 125//186 
f 160//221 125//186 127//188 
f 161//222 127//188 129//190 
f 162//223 129//190 64//125 
f 163//224 130//191 131//192 
f 164//225 131//192 132//193 
f 165//226 132//193 133//194 
f 166//227 133//194 134//195 
f 167//228 134//195 135//196 
f 168//229 135//196 136//197 
f 169//230 136//197 137//198 
f 170//231 137//198 138//199 
f 171//232 138//199 139//200 
f 172//233 139//200 140//201 
f 173//234 140//201 141//202 
f 174//235 141//202 142//203 
f 175//236 142//203 143//204 
f 176//237 143//204 144//205 
f 177//238 144//205 145//206 
f 178//239 145//206 146//207 
f 179//240 146//207 147//208 
f 180//241 147//208 148//209 
f 181//242 148//209 149//210 
f 182//243 149//210 150//211 
f 183//244 150//211 151//212 
f 184//245 151//212 152//213 
f 185//246 152//213 153//214 
f 186//247 153//214 154//215 
f 187//248 154//215 155//216 
f 188//249 155//216 156//217 
f 189//250 156//217 157//218 
f 190//251 157//218 158//219 
f 191//252 158//219 159//220 
f 192//253 159//220 160//221 
f 193//254 160//221 161//222 
f 194//255 161//222 162//223 
f 195//256 162//223 130//191 
f 196//257 163//224 164//225 
f 197//258 164//225 165//226 
f 198//259 165//226 166//227 
f 199//260 166//227 167//228 
f 200//261 167//228 168//229 
f 201//262 168//229 169//230 
f 202//263 169//230 170//231 
f 203//264 170//231 171//232 
f 204//265 171//232 172//233 
f 205//266 172//233 173//234 
f 206//267 173//234 174//235 
f 207//268 174//235 175//236 
f 208//269 175//236 176//237 
f 209//270 176//237 177//238 
f 210//271 177//238 178//239 
f 211//272 178//239 179//240 
f 212//273 179//240 180//241 
f 213//274 180//241 181//242 
f 214//275 181//242 182//243 
f 215//276 182//243 183//244 
f 216//277 183//244 184//245 
f 217//278 184//245 185//246 
f 218//279 185//246 186//247 
f 219//280 186//247 187//248 
f 220//281 187//248 188//249 
f 221//282 188//249 189//250 
f 222//283 189//250 190//251 
f 223//284 190//251 191//252 
f 224//285 191//252 192//253 
f 225//286 192//253 193//254 
f 226//287 193//254 194//255 
f 227//288 194//255 195//256 
f 228//289 195//256 163//224 
f 229//290 196//257 197//258 
f 230//291 197//258 198//259 
f 231//292 198//259 199//260 
f 232//293 199//260 200//261 
f 233//294 200//261 201//262 
f 234//295 201//262 202//263 
f 235//296 202//263 203//264 
f 236//297 203//264 204//265 
f 237//298 204//265 205//266 
f 238//299 205//266 206//267 
f 239//300 206//267 207//268 
f 240//301 207//268 208//269 
f 241//302 208//269 209//270 
f 242//303 209//270 210//271 
f 243//304 210//271 211//272 
f 244//305 211//272 212//273 
f 245//306 212//273 213//274 
f 246//307 213//274 214//275 
f 247//308 214//275 215//276 
f 248//309 215//276 216//277 
f 249//310 216//277 217//278 
f 250//311 217//278 218//279 
f 251//312 218//279 219//280 
f 252//313 219//280 220//281 
f 253//314 220//281 221//282 
f 254//315 221//282 222//283 
f 255//316 222//283 223//284 
f 256//317 223//284 224//285 
f 257//318 224//285 225//286 
f 258//319 225//286 226//287 
f 259//320 226//287 227//288 
f 260//321 227//288 228//289 
f 261//322 228//289 196//257 
f 262//323 229//290 230//291 
f 263//324 230//291 231//292 
f 264//325 231//292 232//293 
f 265//326 232//293 233//294 
f 266//327 233//294 234//295 
f 267//328 234//295 235//296 
f 268//329 235//296 236//297 
f 269//330 236//297 237//298 
f 270//331 237//298 238//299 
f 271//332 238//299 239//300 
f 272//333 239//300 240//301 
f 273//334 240//301 241//302 
f 274//335 241//302 242//303 
f 275//336 242//303 243//304 
f 276//337 243//304 244//305 
f 277//338 244//305 245//306 
f 278//339 245//306 246//307 
f 279//340 246//307 247//308 
f 280//341 247//308 248//309 
f 281//342 248//309 249//310 
f 282//343 249//310 250//311 
f 283//344 250//311 251//312 
f 284//345 251//312 252//313 
f 285//346 252//313 253//314 
f 286//347 253//314 254//315 
f 287//348 254//315 255//316 
f 288//349 255//316 256//317 
f 289//350 256//317 257//318 
f 290//351 257//318 258//319 
f 291//352 258//319 259//320 
f 292//353 259//320 260//321 
f 293//354 260//321 261//322 
f 294//355 261//322 229//290 
f 295//356 262//323 263//324 
f 296//357 263//324 264//325 
f 297//358 264//325 265//326 
f 298//359 265//326 266//327 
f 299//360 266//327 267//328 
f 300//361 267//328 268//329 
f 301//362 268//329 269//330 
f 302//363 269//330 270//331 
f 303//364 270//331 271//332 
f 304//365 271//332 272//333 
f 305//366 272//333 273//334 
f 306//367 273//334 274//335 
f 307//368 274//335 275//336 
f 308//369 275//336 276//337 
f 309//370 276//337 277//338 
f 310//371 277//338 278//339 
f 311//372 278//339 279//340 
f 312//373 279//340 280//341 
f 313//374 280//341 281//342 
f 314//375 281//342 282//343 
f 315//376 282//343 283//344 
f 316//377 283//344 284//345 
f 317//378 284//345 285//346 
f 318//379 285//346 286//347 
f 319//380 286//347 287//348 
f 320//381 287//348 288//349 
f 321//382 288//349 289//350 
f 322//383 289//350 290//351 
f 323//384 290//351 291//352 
f 324//385 291//352 292//353 
f 325//386 292//353 293//354 
f 326//387 293//354 294//355 
f 327//388 294//355 262//323 
f 61//389 295//356 296//357 
f 297//358 60//390 59//391 
f 59//391 296//357 297//358 
f 298//359 58//392 57//393 
f 57//393 297//358 298//359 
f 299//360 56//394 55//395 
f 55//395 298//359 299//360 
f 299//360 300//361 53//396 
f 300//361 54//397 53//396 
f 300//361 301//362 51//398 
f 301//362 52//399 51//398 
f 301//362 302//363 49//400 
f 302//363 50//401 49//400 
f 302//363 303//364 46//402 
f 303//364 47//403 46//402 
f 47//403 303//364 304//365 
f 305//366 45//404 44//405 
f 44//405 304//365 305//366 
f 306//367 43//406 42//407 
f 42//407 305//366 306//367 
f 307//368 41//408 40//409 
f 40//409 306//367 307//368 
f 307//368 308//369 38//410 
f 308//369 39//411 38//410 
f 308//369 309//370 36//412 
f 309//370 37//413 36//412 
f 309//370 310//371 34//414 
f 310//371 35//415 34//414 
f 310//371 311//372 32//416 
f 311//372 33//417 32//416 
f 311//372 312//373 30//418 
f 312//373 31//419 30//418 
f 313//374 29//420 28//421 
f 28//421 312//373 313//374 
f 314//375 27//422 26//423 
f 26//423 313//374 314//375 
f 315//376 25//424 24//425 
f 24//425 314//375 315//376 
f 316//377 23//426 22//427 
f 22//427 315//376 316//377 
f 316//377 317//378 20//428 
f 317//378 21//429 20//428 
f 317//378 318//379 18//430 
f 318//379 19//431 18//430 
f 318//379 319//380 17//432 
f 319//380 15//433 17//432 
f 15//433 319//380 320//381 
f 321//382 14//434 13//435 
f 13//435 320//381 321//382 
f 322//383 12//436 11//437 
f 11//437 321//382 322//383 
f 323//384 10//438 9//439 
f 9//439 322//383 323//384 
f 324//385 8//440 7//441 
f 7//441 323//384 324//385 
f 324//385 325//386 5//442 
f 325//386 6//443 5//442 
f 325//386 326//387 3//444 
f 326//387 4//445 3//444 
f 326//387 327//388 1//446 
f 327//388 2//447 1//446 
f 2//447 327//388 295//356 
f 295//356 61//389 2//447 
f 1//446 4//445 326//387 
f 3//444 6//443 325//386 
f 5//442 8//440 324//385 
f 7//441 10//438 323//384 
f 9//439 12//436 322//383 
f 11//437 14//434 321//382 
f 13//435 16//448 320//381 
f 320//381 16//448 15//433 
f 17//432 19//431 318//379 
f 18//430 21//429 317//378 
f 20//428 23//426 316//377 
f 22//427 25//424 315//376 
f 24//425 27//422 314//375 
f 26//423 29//420 313//374 
f 28//421 31//419 312//373 
f 30//418 33//417 311//372 
f 32//416 35//415 310//371 
f 34//414 37//413 309//370 
f 36//412 39//411 308//369 
f 38//410 41//408 307//368 
f 40//409 43//406 306//367 
f 42//407 45//404 305//366 
f 44//405 48//449 304//365 
f 304//365 48//449 47//403 
f 46//402 50//401 302//363 
f 49//400 52//399 301//362 
f 51//398 54//397 300//361 
f 53//396 56//394 299//360 
f 55//395 58//392 298//359 
f 57//393 60//390 297//358 
f 59//391 62//450 296//357 
f 296//357 62//450 61//389 
f 262//323 295//356 327//388 
f 294//355 327//388 326//387 
f 293//354 326//387 325//386 
f 292//353 325//386 324//385 
f 291//352 324//385 323//384 
f 290//351 323//384 322//383 
f 289//350 322//383 321//382 
f 288//349 321//382 320//381 
f 287//348 320//381 319//380 
f 286//347 319//380 318//379 
f 285//346 318//379 317//378 
f 284//345 317//378 316//377 
f 283//344 316//377 315//376 
f 282//343 315//376 314//375 
f 281//342 314//375 313//374 
f 280//341 313//374 312//373 
f 279//340 312//373 311//372 
f 278//339 311//372 310//371 
f 277//338 310//371 309//370 
f 276//337 309//370 308//369 
f 275//336 308//369 307//368 
f 274//335 307//368 306//367 
f 273//334 306//367 305//366 
f 272//333 305//366 304//365 
f 271//332 304//365 303//364 
f 270//331 303//364 302//363 
f 269//330 302//363 301//362 
f 268//329 301//362 300//361 
f 267//328 300//361 299//360 
f 266//327 299//360 298//359 
f 265//326 298//359 297//358 
f 264//325 297//358 296//357 
f 263//324 296//357 295//356 
f 229//290 262//323 294//355 
f 261//322 294//355 293//354 
f 260//321 293//354 292//353 
f 259//320 292//353 291//352 
f 258//319 291//352 290//351 
f 257//318 290//351 289//350 
f 256//317 289//350 288//349 
f 255//316 288//349 287//348 
f 254//315 287//348 286//347 
f 253//314 286//347 285//346 
f 252//313 285//346 284//345 
f 251//312 284//345 283//344 
f 250//311 283//344 282//343 
f 249//310 282//343 281//342 
f 248//309 281//342 280//341 
f 247//308 280//341 279//340 
f 246//307 279//340 278//339 
f 245//306 278//339 277//338 
f 244//305 277//338 276//337 
f 243//304 276//337 275//336 
f 242//303 275//336 274//335 
f 241//302 274//335 273//334 
f 240//301 273//334 272//333 
f 239//300 272//333 271//332 
f 238//299 271//332 270//331 
f 237//298 270//331 269//330 
f 236//297 269//330 268//329 
f 235//296 268//329 267//328 
f 234//295 267//328 266//327 
f 233//294 266//327 265//326 
f 232//293 265//326 264//325 
f 231//292 264//325 263//324 
f 230//291 263//324 262//323 
f 196//257 229//290 261//322 
f 228//289 261//322 260//321 
f 227//288 260//321 259//320 
f 226//287 259//320 258//319 
f 225//286 258//319 257//318 
f 224//285 257//318 256//317 
f 223//284 256//317 255//316 
f 222//283 255//316 254//315 
f 221//282 254//315 253//314 
f 220//281 253//314 252//313 
f 219//280 252//313 251//312 
f 218//279 251//312 250//311 
f 217//278 250//311 249//310 
f 216//277 249//310 248//309 
f 215//276 248//309 247//308 
f 214//275 247//308 246//307 
f 213//274 246//307 245//306 
f 212//273 245//306 244//305 
f 211//272 244//305 243//304 
f 210//271 243//304 242//303 
f 209//270 242//303 241//302 
f 208//269 241//302 240//301 
f 207//268 240//301 239//300 
f 206//267 239//300 238//299 
f 205//266 238//299 237//298 
f 204//265 237//298 236//297 
f 203//264 236//297 235//296 
f 202//263 235//296 234//295 
f 201//262 234//295 233//294 
f 200//261 233//294 232//293 
f 199//260 232//293 231//292 
f 198//259 231//292 230//291 
f 197//258 230//291 229//290 
f 163//224 196//257 228//289 
f 195//256 228//289 227//288 
f 194//255 227//288 226//287 
f 193//254 226//287 225//286 
f 192//253 225//286 224//285 
f 191//252 224//285 223//284 
f 190//251 223//284 222//283 
f 189//250 222//283 221//282 
f 188//249 221//282 220//281 
f 187//248 220//281 219//280 
f 186//247 219//280 218//279 
f 185//246 218//279 217//278 
f 184//245 217//278 216//277 
f 183//244 216//277 215//276 
f 182//243 215//276 214//275 
f 181//242 214//275 213//274 
f 180//241 213//274 212//273 
f 179//240 212//273 211//272 
f 178//239 211//272 210//271 
f 177//238 210//271 209//270 
f 176//237 209//270 208//269 
f 175//236 208//269 207//268 
f 174//235 207//268 206//267 
f 173//234 206//267 205//266 
f 172//233 205//266 204//265 
f 171//232 204//265 203//264 
f 170//231 203//264 202//263 
f 169//230 202//263 201//262 
f 168//229 201//262 200//261 
f 167//228 200//261 199//260 
f 166//227 199//260 198//259 
f 165//226 198//259 197//258 
f 164//225 197//258 196//257 
f 130//191 163//224 195//256 
f 162//223 195//256 194//255 
f 161//222 194//255 193//254 
f 160//221 193//254 192//253 
f 159//220 192//253 191//252 
f 158//219 191//252 190//251 
f 157//218 190//251 189//250 
f 156//217 189//250 188//249 
f 155//216 188//249 187//248 
f 154//215 187//248 186//247 
f 153//214 186//247 185//246 
f 152//213 185//246 184//245 
f 151//212 184//245 183//244 
f 150//211 183//244 182//243 
f 149//210 182//243 181//242 
f 148//209 181//242 180//241 
f 147//208 180//241 179//240 
f 146//207 179//240 178//239 
f 145//206 178//239 177//238 
f 144//205 177//238 176//237 
f 143//204 176//237 175//236 
f 142//203 175//236 174//235 
f 141//202 174//235 173//234 
f 140//201 173//234 172//233 
f 139//200 172//233 171//232 
f 138//199 171//232 170//231 
f 137//198 170//231 169//230 
f 136//197 169//230 168//229 
f 135//196 168//229 167//228 
f 134//195 167//228 166//227 
f 133//194 166//227 165//226 
f 132//193 165//226 164//225 
f 131//192 164//225 163//224 
f 64//125 130//191 162//223 
f 129//190 162//223 161//222 
f 127//188 161//222 160//221 
f 125//186 160//221 159//220 
f 123//184 159//220 158//219 
f 121//182 158//219 157//218 
f 119//180 157//218 156//217 
f 117//178 156//217 155//216 
f 115//176 155//216 154//215 
f 113//174 154//215 153//214 
f 111//172 153//214 152//213 
f 109//170 152//213 151//212 
f 107//168 151//212 150//211 
f 105//166 150//211 149//210 
f 103//164 149//210 148//209 
f 101//162 148//209 147//208 
f 99//160 147//208 146//207 
f 97//158 146//207 145//206 
f 95//156 145//206 144//205 
f 93//154 144//205 143//204 
f 91//152 143//204 142//203 
f 89//150 142//203 141//202 
f 87//148 141//202 140//201 
f 85//146 140//201 139//200 
f 83//144 139//200 138//199 
f 81//142 138//199 137//198 
f 79//140 137//198 136//197 
f 77//138 136//197 135//196 
f 75//136 135//196 134//195 
f 73//134 134//195 133//194 
f 71//132 133//194 132//193 
f 69//130 132//193 131//192 
f 67//128 131//192 130//191 
f 65//126 64//125 129//190 
f 128//189 129//190 127//188 
f 126//187 127//188 125//186 
f 124//185 125//186 123//184 
f 122//183 123//184 121//182 
f 120//181 121//182 119//180 
f 118//179 119//180 117//178 
f 116//177 117//178 115//176 
f 114//175 115//176 113//174 
f 112//173 113//174 111//172 
f 110//171 111//172 109//170 
f 108//169 109//170 107//168 
f 106//167 107//168 105//166 
f 104//165 105//166 103//164 
f 102//163 103//164 101//162 
f 100//161 101//162 99//160 
f 98//159 99//160 97//158 
f 96//157 97//158 95//156 
f 94//155 95//156 93//154 
f 92//153 93//154 91//152 
f 90//151 91//152 89//150 
f 88//149 89//150 87//148 
f 86//147 87//148 85//146 
f 84//145 85//146 83//144 
f 82//143 83//144 81//142 
f 80//141 81//142 79//140 
f 78//139 79//140 77//138 
f 76//137 77//138 75//136 
f 74//135 75//136 73//134 
f 72//133 73//134 71//132 
f 70//131 71//132 69//130 
f 68//129 69//130 67//128 
f 66//127 67//128 64//125 
f 65//126 128//189 328//451 
f 128//189 126//187 328//451 
f 126//187 124//185 328//451 
f 124//185 122//183 328//451 
f 122//183 120//181 328//451 
f 120//181 118//179 328//451 
f 118//179 116//177 328//451 
f 116//177 114//175 328//451 
f 114//175 112//173 328//451 
f 112//173 110//171 328//451 
f 110//171 108//169 328//451 
f 108//169 106//167 328//451 
f 106//167 104//165 328//451 
f 104//165 102//163 328//451 
f 102//163 100//161 328//451 
f 100//161 98//159 328//451 
f 98//159 96//157 328//451 
f 96//157 94//155 328//451 
f 94//155 92//153 328//451 
f 92//153 90//151 328//451 
f 90//151 88//149 328//451 
f 88//149 86//147 328//451 
f 86//147 84//145 328//451 
f 84//145 82//143 328//451 
f 82//143 80//141 328//451 
f 80//141 78//139 328//451 
f 78//139 76//137 328//451 
f 76//137 74//135 328//451 
f 74//135 72//133 328//451 
f 72//133 70//131 328//451 
f 70//131 68//129 328//451 
f 68//129 66//127 328//451 
f 66//127 65//126 328//451 
